# xmcd
#
# Track frame offsets: 
#        150
#        13278
#        27084
#        40414
#        52802
#        66067
#        80456
#        93138
#        106008
#        118930
#        131875
#        146149
#        158502
#        171202
#        183975
#        196594
#        210529
#        223819
#        235181
#        248864
#        264500
#        279016
#        292876
#
# Disc length: 4092 seconds
#
# Revision: 1
# Processed by: cddbd v1.5.2PL0 Copyright (c) Steve Scherf et al.
# Submitted via: ExactAudioCopy v1.1
#
DISCID=3e0ffa17
DTITLE=Various Artist - 23 Classic Blues Songs From The 1920's, Volum
DTITLE=e 16 (Tefteller)
DYEAR=2018
DGENRE=Blues
TTITLE0=Papa George Lightfoot - Winding Ball Mama (mono)
TTITLE1=Blind Lemon Jefferson - Piney Woods Money Mama (mono)
TTITLE2=Jim Jackson - Love Sick Blues (mono)
TTITLE3=Memphis Minnie - Ma Rainey (mono)
TTITLE4=Blind Blake - Too Tight Blues No. 2 (mono)
TTITLE5=The Beale Street Sheiks - Jumping On The Hill (mono)
TTITLE6=Leola B. Wilson with Blind Blake - Black Biting Bee Blues (mon
TTITLE6=o)
TTITLE7=Dad Nelson - Coon Can Blues (mono)
TTITLE8=Papa Charlie Jackson - Ash Tray Blues (mono)
TTITLE9=Charley Patton - Oh Death (mono)
TTITLE10=Joe Williams - My Grey Poney (mono)
TTITLE11=Sam Butler - Christians Fight On, Your Time Ain't Long (mono)
TTITLE12=Sam Butler - Heaven Is My View (mono)
TTITLE13=Papa George Lightfoot - Snake Hipping Daddy (mono)
TTITLE14=Blind Lemon Jefferson - Low Down Mojo Blues (mono)
TTITLE15=Raymond Barrow - Walking Blues (mono)
TTITLE16=Charley Patton - Troubled 'Bout My Mother (mono)
TTITLE17=Lottie Kimbrough - Don't Speak To Me (mono)
TTITLE18=Otto Virgial - Got The Blues About Rome (mono)
TTITLE19=Otto Virgial - Seven Year Itch (mono)
TTITLE20=Freezone - Indian Squaw Blues (mono)
TTITLE21=William Harris - I'm A Roamin' Gambler (mono)
TTITLE22=William Harris - I Was Born In The Country - Raised In Town (
TTITLE22=mono)
EXTD=
EXTT0=
EXTT1=
EXTT2=
EXTT3=
EXTT4=
EXTT5=
EXTT6=
EXTT7=
EXTT8=
EXTT9=
EXTT10=
EXTT11=
EXTT12=
EXTT13=
EXTT14=
EXTT15=
EXTT16=
EXTT17=
EXTT18=
EXTT19=
EXTT20=
EXTT21=
EXTT22=
PLAYORDER=
